<svg xmlns="http://www.w3.org/2000/svg" viewBox="0 0 24 24" fill="none">
  <path d="M14 3c.7 2.2 2.2 3.6 4.4 3.9V10c-1.8.1-3.3-.4-4.4-1.3v5.6a5.3 5.3 0 1 1-3.8-5v2.6a2.5 2.5 0 1 0 1.8 2.4V3h2z" fill="#000"/>
  <path d="M14 3v1.2c.8 2 2.2 3.2 4.4 3.5V10c-1.8.1-3.3-.4-4.4-1.3v5.6a5.3 5.3 0 1 1-3.8-5v2.6a2.5 2.5 0 1 0 1.8 2.4V3h2z" fill="#39ff88" fill-opacity=".5"/>
  <path d="M14 4.2c.8 2 2.2 3.2 4.4 3.5v1.1c-1.8.1-3.3-.4-4.4-1.3v5.6a5.3 5.3 0 1 1-3.8-5v1.4a3.7 3.7 0 1 0 1.8 3.4V4.2h2z" fill="#a78bfa" fill-opacity=".5"/>
</svg>
